<?xml version="1.0" encoding="utf-8"?>
<!-- Generator: Adobe Illustrator 26.1.0, SVG Export Plug-In . SVG Version: 6.00 Build 0)  -->
<svg version="1.1" id="Layer_1" xmlns="http://www.w3.org/2000/svg" xmlns:xlink="http://www.w3.org/1999/xlink" x="0px" y="0px"
	 viewBox="0 0 212.6 212.6" style="enable-background:new 0 0 212.6 212.6;" xml:space="preserve">
<style type="text/css">
	.st0{fill:#FA6140;}
</style>
<g>
	<path class="st0" d="M142.5,145.2c0-2.4,0-4.3,0-6.3c0-34.3,0-68.6,0-102.9c0-9.9,2-12.6,11.4-15.4c10-3,20.1-6,30.1-9
		c11.5-3.4,18.2,1.6,18.3,13.5c0,6.5,0.1,13,0,19.5c-0.1,7.4-3.1,11.4-10.2,13.5c-7,2.1-14,4.2-21.1,6c-3.7,0.9-4.8,2.7-4.8,6.5
		c0.2,31.5-0.3,63,0.3,94.4c0.3,17-5.8,27.6-24.1,33.9c-18.1,6.2-35.6,4.2-50.7-8.5c-12-10.1-11.9-26.2,0.1-36.4
		c13-11.1,28.2-13.3,44.5-10.1C138.1,144.1,140,144.6,142.5,145.2z"/>
	<path class="st0" d="M64.1,57.9c-15,0-30,0-44.9,0c-6.9,0-8.6-1.8-8.7-8.5c-0.2-15.3-0.2-15.3,14.9-15.3c27.8,0,55.6,0,83.4,0
		c7.9,0,9.4,1.5,9.4,9.2c0.1,14.5,0.1,14.5-14.7,14.5C90.4,57.9,77.3,57.9,64.1,57.9z"/>
	<path class="st0" d="M64.1,105.9c-15,0-30,0-44.9,0c-6.9,0-8.6-1.8-8.7-8.5c-0.2-15.3-0.2-15.3,14.9-15.3c27.8,0,55.6,0,83.4,0
		c7.9,0,9.4,1.5,9.4,9.2c0.1,14.5,0.1,14.5-14.7,14.5C90.4,105.9,77.3,105.9,64.1,105.9z"/>
	<path class="st0" d="M40,153.9c-7.3,0-14.6,0.1-22,0c-5.5-0.1-7.4-2.1-7.5-7.6C10,130.2,10,130.2,26,130.2c12,0,24,0,35.9,0
		c6.4,0,8.2,1.9,8.3,8.4c0.2,15.4,0.2,15.4-15.3,15.4C50,153.9,45,153.9,40,153.9z"/>
</g>
</svg>
