<?xml version="1.0" encoding="UTF-8"?><svg id="a" xmlns="http://www.w3.org/2000/svg" viewBox="0 0 32 32"><defs><style>.b{fill:#e67e22;}.c{isolation:isolate;opacity:.1;}</style></defs><path class="b" d="M15.95,0V18.76c-3.39-1.96-7.73-.79-9.69,2.6-1.96,3.39-.79,7.73,2.6,9.69s7.73,.79,9.69-2.6c.62-1.08,.95-2.31,.95-3.56V7.11h7.12V0H15.95Z"/><path class="c" d="M25.53,0V5.94h-7.12V23.72c0,3.92-3.18,7.11-7.1,7.11-1.6,0-3.16-.54-4.41-1.53,2.43,3.08,6.9,3.6,9.98,1.17,1.71-1.35,2.7-3.4,2.7-5.58V7.11h7.12V0h-1.17Z"/></svg>